<?xml version="1.0" standalone="no"?>
<!DOCTYPE svg PUBLIC "-//W3C//DTD SVG 20010904//EN"
 "http://www.w3.org/TR/2001/REC-SVG-20010904/DTD/svg10.dtd">
<svg version="1.0" xmlns="http://www.w3.org/2000/svg"
 width="260.000000pt" height="260.000000pt" viewBox="0 0 260.000000 260.000000"
 preserveAspectRatio="xMidYMid meet">
<metadata>
Created by potrace 1.11, written by Peter Selinger 2001-2013
</metadata>
<g transform="translate(0.000000,260.000000) scale(0.100000,-0.100000)"
fill="#000000" stroke="none">
<path d="M29 2571 l-29 -29 0 -1242 0 -1242 29 -29 29 -29 1242 0 1242 0 29
29 29 29 0 1242 0 1242 -29 29 -29 29 -1242 0 -1242 0 -29 -29z m1461 -566 l0
-95 -30 0 -30 0 0 -65 0 -65 335 0 335 0 0 -130 0 -130 -95 0 -95 0 0 35 0 35
-240 0 -240 0 0 -95 0 -95 335 0 335 0 0 -290 0 -290 -335 0 -335 0 0 -65 0
-65 30 0 30 0 0 -95 0 -95 -160 0 -160 0 0 95 0 95 35 0 35 0 0 65 0 65 -370
0 -370 0 0 130 0 130 95 0 95 0 0 -35 0 -35 275 0 275 0 0 95 0 95 -370 0
-370 0 0 290 0 290 370 0 370 0 0 65 0 65 -35 0 -35 0 0 95 0 95 160 0 160 0
0 -95z"/>
<path d="M690 1495 l0 -95 275 0 275 0 0 95 0 95 -275 0 -275 0 0 -95z"/>
<path d="M1430 1105 l0 -95 240 0 240 0 0 95 0 95 -240 0 -240 0 0 -95z"/>
</g>
</svg>
