<?xml version="1.0" encoding="utf-8"?>
<!-- Generator: Adobe Illustrator 26.0.1, SVG Export Plug-In . SVG Version: 6.00 Build 0)  -->
<svg version="1.1" id="Слой_1" xmlns="http://www.w3.org/2000/svg" xmlns:xlink="http://www.w3.org/1999/xlink" x="0px" y="0px"
	 viewBox="0 0 474 167" style="enable-background:new 0 0 474 167;" xml:space="preserve">
<style type="text/css">
	.st0{fill:#FFFFFF;}
</style>
<g>
	<path class="st0" d="M352.9,83.3L352.9,83.3L352.9,83.3L352.9,83.3c-0.1-0.1-0.1-0.2-0.1-0.2c-0.1-0.2-0.2-0.4-0.4-0.7
		c-0.3-0.6-0.8-1.5-1.5-2.6c-1.3-2.3-3.3-5.5-5.8-9.4c-5.1-7.8-12.8-18.1-22.7-28.4C302.6,21.2,273.6,0.5,237,0.5
		s-65.6,20.7-85.4,41.4c-9.9,10.3-17.5,20.7-22.7,28.4c-2.6,3.9-4.5,7.1-5.8,9.4c-0.7,1.1-1.2,2-1.5,2.6c-0.2,0.3-0.3,0.5-0.4,0.7
		c0,0.1-0.1,0.1-0.1,0.2l0,0l0,0l0,0c0,0-0.1,0.2-0.1,0.2s0.1,0.2,0.1,0.2l0,0l0,0l0,0c0,0,0.1,0.1,0.1,0.2c0.1,0.2,0.2,0.4,0.4,0.7
		c0.3,0.6,0.8,1.5,1.5,2.6c1.3,2.3,3.3,5.5,5.8,9.4c5.1,7.8,12.8,18.1,22.7,28.4c19.8,20.7,48.8,41.4,85.4,41.4
		c36.6,0,65.6-20.7,85.4-41.4c9.9-10.3,17.5-20.7,22.7-28.4c2.6-3.9,4.5-7.1,5.8-9.4c0.7-1.1,1.2-2,1.5-2.6c0.2-0.3,0.3-0.5,0.4-0.7
		c0-0.1,0.1-0.1,0.1-0.2l0,0l0,0l0,0c0,0,0.1-0.2,0.1-0.2S352.9,83.3,352.9,83.3z M237,132.5c-27.1,0-49-21.9-49-49
		c0-27.1,21.9-49,49-49c27.1,0,49,21.9,49,49C286,110.6,264,132.5,237,132.5z"/>
</g>
</svg>
