<?xml version="1.0" standalone="no"?>
<!DOCTYPE svg PUBLIC "-//W3C//DTD SVG 20010904//EN"
 "http://www.w3.org/TR/2001/REC-SVG-20010904/DTD/svg10.dtd">
<svg version="1.0" xmlns="http://www.w3.org/2000/svg"
 width="512.000000pt" height="512.000000pt" viewBox="0 0 512.000000 512.000000"
 preserveAspectRatio="xMidYMid meet">
<metadata>
Created by potrace 1.14, written by Peter Selinger 2001-2017
</metadata>
<g transform="translate(0.000000,512.000000) scale(0.100000,-0.100000)"
fill="#000000" stroke="none">
<path d="M500 5104 c-234 -50 -436 -254 -485 -489 -22 -105 -22 -4005 0 -4109
38 -182 168 -350 335 -434 153 -77 -5 -72 2210 -72 2214 0 2054 -5 2209 72
165 81 299 254 336 433 22 106 22 4005 0 4109 -51 239 -253 441 -490 491 -102
21 -4015 21 -4115 -1z m1285 -1118 l570 -396 205 0 206 0 659 459 c363 252
661 458 662 457 1 -1 -38 -334 -86 -741 l-88 -740 28 -50 c15 -27 40 -86 56
-130 25 -73 27 -92 27 -225 0 -133 -2 -152 -27 -225 -56 -161 -160 -296 -295
-385 -42 -28 -86 -53 -98 -56 -11 -3 -213 -217 -449 -475 l-428 -469 -167 0
-167 0 -417 458 c-367 402 -424 461 -481 494 -191 108 -307 243 -371 433 -21
62 -28 106 -32 195 -6 138 16 240 75 361 l38 77 -82 693 c-44 382 -84 716 -88
742 l-6 49 93 -65 c51 -36 349 -243 663 -461z m163 -2664 l352 -387 -102 -97
c-118 -111 -111 -109 -245 -58 -118 45 -218 114 -334 229 -97 97 -111 115
-157 211 -53 109 -86 224 -80 276 2 23 25 50 103 122 55 51 102 92 105 91 3 0
164 -174 358 -387z m1683 302 c52 -48 97 -92 100 -98 9 -17 -17 -156 -41 -217
-33 -83 -83 -167 -143 -240 -111 -134 -304 -262 -459 -304 l-67 -18 -100 93
-100 93 47 53 c149 168 658 723 663 724 3 0 48 -39 100 -86z"/>
<path d="M1707 3124 c-97 -23 -167 -63 -242 -139 -111 -110 -155 -215 -155
-366 0 -139 50 -259 150 -359 99 -99 223 -150 366 -150 146 0 266 52 368 160
126 134 171 297 131 469 -65 274 -348 451 -618 385z"/>
<path d="M3190 3124 c-282 -61 -461 -342 -395 -622 40 -170 169 -310 338 -369
175 -61 390 -10 525 125 98 98 152 227 152 361 0 145 -48 260 -151 364 -76 76
-155 119 -265 142 -84 18 -119 18 -204 -1z"/>
</g>
</svg>
