<svg id="Слой_1" data-name="Слой 1" xmlns="http://www.w3.org/2000/svg" width="83.13" height="25" viewBox="0 0 83.13 25"><defs><style>.cls-1{fill:#fff;}</style></defs><title>logo</title><rect class="cls-1" x="21" width="1" height="5"/><rect class="cls-1" x="2" width="1" height="5"/><rect class="cls-1" x="2" y="5" width="20" height="1"/><rect class="cls-1" x="2" y="6" width="1" height="5"/><rect class="cls-1" x="21" y="6" width="1" height="5"/><rect class="cls-1" x="2" y="11" width="1" height="1"/><rect class="cls-1" x="3" y="12" width="1" height="1"/><rect class="cls-1" x="4" y="13" width="1" height="1"/><rect class="cls-1" x="4" y="14" width="1" height="1"/><rect class="cls-1" x="4" y="15" width="1" height="1"/><rect class="cls-1" x="4" y="17" width="1" height="1"/><rect class="cls-1" x="5" y="18" width="1" height="1"/><rect class="cls-1" x="3" y="18" width="1" height="1"/><rect class="cls-1" x="2" y="17" width="1" height="1"/><rect class="cls-1" x="1" y="18" width="1" height="1"/><rect class="cls-1" y="19" width="1" height="1"/><rect class="cls-1" x="6" y="19" width="1" height="1"/><rect class="cls-1" x="6" y="21" width="1" height="1"/><rect class="cls-1" x="7" y="22" width="1" height="1"/><rect class="cls-1" x="6" y="23" width="1" height="1"/><rect class="cls-1" x="5" y="24" width="1" height="1"/><rect class="cls-1" x="5" y="20" width="1" height="1"/><rect class="cls-1" x="4" y="19" width="1" height="1"/><rect class="cls-1" x="1" y="20" width="1" height="1"/><rect class="cls-1" x="4" y="23" width="1" height="1"/><rect class="cls-1" x="3" y="22" width="1" height="1"/><rect class="cls-1" x="2" y="21" width="1" height="1"/><rect class="cls-1" x="7" y="20" width="1" height="1"/><rect class="cls-1" x="147" y="1000" width="1" height="1" transform="translate(169 1012) rotate(180)"/><rect class="cls-1" x="146" y="1001" width="1" height="1" transform="translate(167 1014) rotate(180)"/><rect class="cls-1" x="145" y="1002" width="1" height="1" transform="translate(165 1016) rotate(180)"/><rect class="cls-1" x="145" y="1003" width="1" height="1" transform="translate(165 1018) rotate(180)"/><rect class="cls-1" x="145" y="1004" width="1" height="1" transform="translate(165 1020) rotate(180)"/><rect class="cls-1" x="146" y="1005" width="1" height="1" transform="translate(167 1022) rotate(180)"/><rect class="cls-1" x="146" y="1005" width="1" height="1" transform="translate(167 1022) rotate(180)"/><rect class="cls-1" x="129" y="1005" width="1" height="1" transform="translate(-1002 146) rotate(-90)"/><rect class="cls-1" x="133" y="1009" width="1" height="1" transform="translate(-1002 154) rotate(-90)"/><rect class="cls-1" x="142" y="1009" width="1" height="1" transform="translate(159 1030) rotate(180)"/><rect class="cls-1" x="142" y="1009" width="1" height="1" transform="translate(159 1030) rotate(180)"/><rect class="cls-1" x="143" y="1008" width="1" height="1" transform="translate(161 1028) rotate(180)"/><rect class="cls-1" x="143" y="1010" width="1" height="1" transform="translate(161 1032) rotate(180)"/><rect class="cls-1" x="142" y="1011" width="1" height="1" transform="translate(159 1034) rotate(180)"/><rect class="cls-1" x="143" y="1012" width="1" height="1" transform="translate(161 1036) rotate(180)"/><rect class="cls-1" x="144" y="1013" width="1" height="1" transform="translate(163 1038) rotate(180)"/><rect class="cls-1" x="144" y="1009" width="1" height="1" transform="translate(163 1030) rotate(180)"/><rect class="cls-1" x="145" y="1008" width="1" height="1" transform="translate(165 1028) rotate(180)"/><rect class="cls-1" x="146" y="1007" width="1" height="1" transform="translate(167 1026) rotate(180)"/><rect class="cls-1" x="145" y="1012" width="1" height="1" transform="translate(165 1036) rotate(180)"/><rect class="cls-1" x="146" y="1011" width="1" height="1" transform="translate(167 1034) rotate(180)"/><rect class="cls-1" x="147" y="1010" width="1" height="1" transform="translate(169 1032) rotate(180)"/><rect class="cls-1" x="148" y="1009" width="1" height="1" transform="translate(171 1030) rotate(180)"/><rect class="cls-1" x="147" y="1006" width="1" height="1" transform="translate(169 1024) rotate(180)"/><rect class="cls-1" x="148" y="1007" width="1" height="1" transform="translate(171 1026) rotate(180)"/><rect class="cls-1" x="149" y="1008" width="1" height="1" transform="translate(173 1028) rotate(180)"/><rect class="cls-1" x="144" y="1007" width="1" height="1" transform="translate(163 1026) rotate(180)"/><rect class="cls-1" x="145" y="1006" width="1" height="1" transform="translate(165 1024) rotate(180)"/><rect class="cls-1" x="144" y="1005" width="1" height="1" transform="translate(163 1022) rotate(180)"/><rect class="cls-1" x="3" y="1" width="1" height="1"/><rect class="cls-1" x="4" y="2" width="1" height="1"/><rect class="cls-1" x="5" y="3" width="1" height="1"/><rect class="cls-1" x="6" y="4" width="1" height="1"/><rect class="cls-1" x="146" y="990" width="1" height="1" transform="translate(167 992) rotate(180)"/><rect class="cls-1" x="145" y="991" width="1" height="1" transform="translate(165 994) rotate(180)"/><rect class="cls-1" x="144" y="992" width="1" height="1" transform="translate(163 996) rotate(180)"/><rect class="cls-1" x="143" y="993" width="1" height="1" transform="translate(161 998) rotate(180)"/><circle class="cls-1" cx="6" cy="12" r="5"/><circle cx="6" cy="12" r="4"/><circle class="cls-1" cx="18" cy="12" r="5"/><circle cx="18" cy="12" r="4"/><circle class="cls-1" cx="12" cy="21" r="4"/><circle cx="12" cy="21" r="3"/><path class="cls-1" d="M163,1007V997h1v10Z" transform="translate(-126 -989)"/><path class="cls-1" d="M167,1007V997h1v9h4v1Z" transform="translate(-126 -989)"/><path class="cls-1" d="M174,1007V997h1v9h5v1Z" transform="translate(-126 -989)"/><path class="cls-1" d="M189,997v6.11a3.69,3.69,0,0,1-1.17,2.69,4.69,4.69,0,0,1-5.72,0,3.75,3.75,0,0,1-1.11-2.72V997h1v6.11a3,3,0,0,0,.75,2.25,3,3,0,0,0,5.25-2.18V997Z" transform="translate(-126 -989)"/><path class="cls-1" d="M196.9,1004.06a2.4,2.4,0,0,1-.92,2,3.42,3.42,0,0,1-2.31.73c-1.22,0-2.67-.13-2.67-.4v-.7c0,.31,1.5.46,2.62.46a2.88,2.88,0,0,0,1.88-.56,1.76,1.76,0,0,0,.69-1.48,1.71,1.71,0,0,0-.26-.94,2.22,2.22,0,0,0-.79-.68,9.66,9.66,0,0,0-1.59-.66,5.44,5.44,0,0,1-2.12-1.14,2.44,2.44,0,0,1,.29-3.46,3.49,3.49,0,0,1,2.26-.71,6.61,6.61,0,0,1,2.65.53l-.25.6a6.18,6.18,0,0,0-2.38-.52,2.79,2.79,0,0,0-1.76.51,1.67,1.67,0,0,0-.66,1.39,1.83,1.83,0,0,0,.2.91,1.85,1.85,0,0,0,.66.64,9,9,0,0,0,1.57.68,8.49,8.49,0,0,1,1.76.78,2.51,2.51,0,0,1,.86.86A2.35,2.35,0,0,1,196.9,1004.06Z" transform="translate(-126 -989)"/><path class="cls-1" d="M199,1007V997h1v10Z" transform="translate(-126 -989)"/><path class="cls-1" d="M204,1002v5h-1V997h1.92a4.59,4.59,0,0,1,2.75.51,2.28,2.28,0,0,1,.89,2,2.58,2.58,0,0,1-.53,1.65,3.14,3.14,0,0,1-1.61,1.15l2.71,4.71h-.83l-2.58-5Zm0-1h1.14c.84,0,1.5.08,2-.3s.7-.43.7-1.17-.23-.89-.68-1.23a4,4,0,0,0-2.23-.3H204Z" transform="translate(-126 -989)"/></svg>