<svg id="Слой_1" data-name="Слой 1" xmlns="http://www.w3.org/2000/svg" width="92" height="38" viewBox="0 0 92 38"><defs><style>.cls-1{fill:#1a1a1a;}</style></defs><title>so-mobile</title><path class="cls-1" d="M2569,918.65h5.48a23.34,23.34,0,0,0,7.59,4.7,24.23,24.23,0,0,0,8.45,1.49,15.46,15.46,0,0,0,3.53-.38,10.66,10.66,0,0,0,2.78-1,5.66,5.66,0,0,0,1.83-1.54,3.14,3.14,0,0,0,.66-1.9,3.53,3.53,0,0,0-.75-2.17,6.53,6.53,0,0,0-2.39-1.8,19.82,19.82,0,0,0-4.22-1.39,52.77,52.77,0,0,0-6.21-1,34.24,34.24,0,0,1-7.19-1.41,17.19,17.19,0,0,1-4.85-2.37,8.94,8.94,0,0,1-2.75-3.11,7.9,7.9,0,0,1-.87-3.62,6.43,6.43,0,0,1,1-3.42,9.32,9.32,0,0,1,3-2.92,17.54,17.54,0,0,1,5-2.05,27.83,27.83,0,0,1,6.95-.78,22.67,22.67,0,0,1,4.21.36,20.73,20.73,0,0,1,3.53,1,17.48,17.48,0,0,1,3,1.46,25.78,25.78,0,0,1,2.57,1.81v-3.67h6v9.65h-6a10.84,10.84,0,0,0-2.08-2.49,13.5,13.5,0,0,0-3-2,17,17,0,0,0-3.65-1.33,17.42,17.42,0,0,0-4.14-.48,17.18,17.18,0,0,0-4,.42,11.25,11.25,0,0,0-2.89,1.07,5.43,5.43,0,0,0-1.75,1.46,2.68,2.68,0,0,0-.59,1.58,3.71,3.71,0,0,0,.52,1.89,4.87,4.87,0,0,0,1.84,1.66,15.06,15.06,0,0,0,3.59,1.37,43.91,43.91,0,0,0,5.77,1,56.9,56.9,0,0,1,8.23,1.55,19.16,19.16,0,0,1,5.32,2.26,7.92,7.92,0,0,1,2.86,3.08,8.91,8.91,0,0,1,.85,4,7.11,7.11,0,0,1-.9,3.35,9.29,9.29,0,0,1-2.73,3.05,15.06,15.06,0,0,1-4.64,2.22,22.69,22.69,0,0,1-6.6.86,32.5,32.5,0,0,1-4.56-.31,28.47,28.47,0,0,1-8.11-2.4,32.15,32.15,0,0,1-3.74-2.06v4h-6Zm7.94,11.52v-2.65a30.27,30.27,0,0,0,6.71,2.57,31.67,31.67,0,0,0,7.75.88,27.76,27.76,0,0,0,6.25-.7,18.76,18.76,0,0,0,5.37-2.09,11.51,11.51,0,0,0,3.77-3.51,8.7,8.7,0,0,0,1.42-5,12.59,12.59,0,0,0-.36-3.12,8.08,8.08,0,0,0-1.43-2.83,5.71,5.71,0,0,1,1.16,1.11,7.45,7.45,0,0,1,.9,1.45,8.78,8.78,0,0,1,.59,1.66,7.24,7.24,0,0,1,.21,1.73,9.75,9.75,0,0,1-1.4,5.23,12.13,12.13,0,0,1-3.84,3.85,18.93,18.93,0,0,1-5.69,2.39,28.64,28.64,0,0,1-7,.82,34.67,34.67,0,0,1-7.44-.72,25.57,25.57,0,0,1-5.87-2v1.93h-7.46v-1Zm-6.09-20.58a11.61,11.61,0,0,0,2.13,2.12,13.06,13.06,0,0,0,2.94,1.66,25.18,25.18,0,0,0,4,1.26,47.86,47.86,0,0,0,5.41.88q3,.35,5.17.72a29,29,0,0,1,3.57.82,7.45,7.45,0,0,1,2.18,1,2.82,2.82,0,0,1,1,1.31,13.4,13.4,0,0,0-1.64-.82,15.65,15.65,0,0,0-2.23-.7q-1.36-.33-3.42-.66t-5.19-.7a40.48,40.48,0,0,1-5.81-1.1,22.62,22.62,0,0,1-4.28-1.59,9.37,9.37,0,0,1-2.73-2A4.43,4.43,0,0,1,2570.84,909.6Zm8.66-6.94a1.3,1.3,0,0,1,.57-1,5,5,0,0,1,1.59-.78,14.52,14.52,0,0,1,2.39-.51,22.19,22.19,0,0,1,3-.19,12.92,12.92,0,0,1,4.5.76,10.72,10.72,0,0,1,3.43,2q-.75-.32-1.68-.63t-2-.56a20.18,20.18,0,0,0-2.11-.4,15.85,15.85,0,0,0-2.13-.15,20.36,20.36,0,0,0-4.8.47A10.22,10.22,0,0,0,2579.5,902.66Zm21.44,3.81h6.33V896.3h1.12v11.17h-7.46Z" transform="translate(-2569 -894)"/><path class="cls-1" d="M2615.67,912.2a17.41,17.41,0,0,1,1.43-7,16.84,16.84,0,0,1,4.16-5.8,20,20,0,0,1,6.72-4,26.5,26.5,0,0,1,9.13-1.46,29.2,29.2,0,0,1,9.29,1.33,18.06,18.06,0,0,1,6.52,3.68,14.73,14.73,0,0,1,3.84,5.57,19.05,19.05,0,0,1,1.26,7,16.84,16.84,0,0,1-1.4,6.86,16,16,0,0,1-4.08,5.56,19.44,19.44,0,0,1-6.59,3.74,27,27,0,0,1-8.91,1.37,30.42,30.42,0,0,1-8.17-1.07,21.08,21.08,0,0,1-6.8-3.2,15.8,15.8,0,0,1-4.66-5.29A15.1,15.1,0,0,1,2615.67,912.2Zm5.91,14.28a19.28,19.28,0,0,0,3.09,1.81,26.84,26.84,0,0,0,3.72,1.42,30.12,30.12,0,0,0,4.18.94,31.11,31.11,0,0,0,13.63-1,21.54,21.54,0,0,0,7.24-3.89,18,18,0,0,0,4.77-6.11,18.32,18.32,0,0,0,1.72-8.05,16.56,16.56,0,0,0-.6-4.41,19.13,19.13,0,0,0-7.9-10.87,16.11,16.11,0,0,1,4,2.64,16.33,16.33,0,0,1,4.88,7.87,17.7,17.7,0,0,1,.64,4.77,20.31,20.31,0,0,1-1.7,8.41,18.05,18.05,0,0,1-4.84,6.44,22.19,22.19,0,0,1-7.56,4.11A31.66,31.66,0,0,1,2637,932a27.27,27.27,0,0,1-9-1.35A15.61,15.61,0,0,1,2621.57,926.48Zm.78-14.5a12.88,12.88,0,0,0,1.1,5.44,11.54,11.54,0,0,0,3,4,13.34,13.34,0,0,0,4.57,2.51,18.41,18.41,0,0,0,5.73.86,16.79,16.79,0,0,0,6.27-1.09,13.53,13.53,0,0,0,4.56-2.91,12,12,0,0,0,2.78-4.22,13.71,13.71,0,0,0,.93-5,14.46,14.46,0,0,0-1-5.49,11.62,11.62,0,0,0-2.86-4.19,12.78,12.78,0,0,0-4.52-2.67,17.89,17.89,0,0,0-6-.94,17.11,17.11,0,0,0-5.89,1,13.53,13.53,0,0,0-4.62,2.77,12.54,12.54,0,0,0-3,4.33A14.15,14.15,0,0,0,2622.35,912Zm1.92.08a12.71,12.71,0,0,1,.84-4.64,10.65,10.65,0,0,1,2.47-3.78,11.82,11.82,0,0,1,4-2.55,14.5,14.5,0,0,1,5.4-.94,13.61,13.61,0,0,1,5.91,1.22,11.85,11.85,0,0,1,4.33,3.5,15.68,15.68,0,0,0-5-2.88,16.71,16.71,0,0,0-5.23-.82,13.27,13.27,0,0,0-4.92.86,10.58,10.58,0,0,0-3.65,2.35,10.2,10.2,0,0,0-2.27,3.47,11.27,11.27,0,0,0-.79,4.21,9.48,9.48,0,0,0,.61,3.39,10.63,10.63,0,0,0,1.76,3,12.92,12.92,0,0,0,2.78,2.49,16.9,16.9,0,0,0,3.69,1.85,13.57,13.57,0,0,1-4.24-1.35,10.84,10.84,0,0,1-3.11-2.4,10,10,0,0,1-1.91-3.2A10.9,10.9,0,0,1,2624.27,912.06Z" transform="translate(-2569 -894)"/></svg>