<svg id="Слой_1" data-name="Слой 1" xmlns="http://www.w3.org/2000/svg" width="152" height="63" viewBox="0 0 152 63"><defs><style>.cls-1{fill:#1a1a1a;}</style></defs><title>so</title><path class="cls-1" d="M61,952.87h9.05a38.54,38.54,0,0,0,12.54,7.8,39.91,39.91,0,0,0,14,2.47,25.48,25.48,0,0,0,5.83-.62,17.59,17.59,0,0,0,4.59-1.71,9.37,9.37,0,0,0,3-2.55,5.21,5.21,0,0,0,1.08-3.15,5.86,5.86,0,0,0-1.24-3.6,10.79,10.79,0,0,0-4-3,32.64,32.64,0,0,0-7-2.31,86.87,86.87,0,0,0-10.27-1.6,56.4,56.4,0,0,1-11.88-2.33,28.37,28.37,0,0,1-8-3.93,14.82,14.82,0,0,1-4.55-5.15,13.13,13.13,0,0,1-1.44-6,10.68,10.68,0,0,1,1.68-5.66,15.42,15.42,0,0,1,5-4.84,28.93,28.93,0,0,1,8.26-3.4A45.79,45.79,0,0,1,89.17,912a37.36,37.36,0,0,1,7,.6,34.16,34.16,0,0,1,5.83,1.62,28.82,28.82,0,0,1,4.92,2.42,42.67,42.67,0,0,1,4.24,3v-6.09h9.94v16h-9.94a18,18,0,0,0-3.44-4.13,22.34,22.34,0,0,0-4.88-3.31,28,28,0,0,0-6-2.2,28.7,28.7,0,0,0-6.84-.8,28.27,28.27,0,0,0-6.6.69,18.55,18.55,0,0,0-4.77,1.78A9,9,0,0,0,75.66,924a4.46,4.46,0,0,0-1,2.62,6.16,6.16,0,0,0,.86,3.13,8.06,8.06,0,0,0,3,2.75,24.83,24.83,0,0,0,5.94,2.27,72.28,72.28,0,0,0,9.54,1.71,93.65,93.65,0,0,1,13.6,2.58,31.6,31.6,0,0,1,8.79,3.75,13.11,13.11,0,0,1,4.73,5.11,14.81,14.81,0,0,1,1.41,6.55,11.81,11.81,0,0,1-1.48,5.55,15.39,15.39,0,0,1-4.5,5.06,24.85,24.85,0,0,1-7.66,3.69,37.37,37.37,0,0,1-10.91,1.42,53.62,53.62,0,0,1-7.53-.51,46.89,46.89,0,0,1-13.4-4,53,53,0,0,1-6.18-3.42v6.58H61ZM74.12,972v-4.4a49.89,49.89,0,0,0,11.08,4.27A52.12,52.12,0,0,0,98,973.31a45.68,45.68,0,0,0,10.33-1.16,30.91,30.91,0,0,0,8.88-3.47,19,19,0,0,0,6.23-5.82,14.47,14.47,0,0,0,2.34-8.22,20.91,20.91,0,0,0-.6-5.18,13.42,13.42,0,0,0-2.36-4.69,9.44,9.44,0,0,1,1.92,1.84,12.38,12.38,0,0,1,1.48,2.4,14.58,14.58,0,0,1,1,2.75,12,12,0,0,1,.35,2.87,16.22,16.22,0,0,1-2.32,8.66,20.1,20.1,0,0,1-6.34,6.38,31.21,31.21,0,0,1-9.41,4A47.13,47.13,0,0,1,98,975a57.07,57.07,0,0,1-12.3-1.2A42.17,42.17,0,0,1,76,970.47v3.2H63.65V972ZM64,937.86a19.23,19.23,0,0,0,3.51,3.51,21.58,21.58,0,0,0,4.86,2.75,41.51,41.51,0,0,0,6.67,2.09A78.75,78.75,0,0,0,88,947.68q5,.58,8.55,1.2a47.85,47.85,0,0,1,5.9,1.36,12.29,12.29,0,0,1,3.6,1.67,4.66,4.66,0,0,1,1.7,2.18,22.22,22.22,0,0,0-2.72-1.36,25.89,25.89,0,0,0-3.69-1.16q-2.25-.56-5.65-1.09t-8.57-1.16a66.66,66.66,0,0,1-9.6-1.82,37.26,37.26,0,0,1-7.07-2.64,15.49,15.49,0,0,1-4.5-3.29A7.34,7.34,0,0,1,64,937.86Zm14.31-11.51a2.15,2.15,0,0,1,.95-1.69,8.22,8.22,0,0,1,2.63-1.29,23.82,23.82,0,0,1,4-.84,36.51,36.51,0,0,1,4.92-.31,21.29,21.29,0,0,1,7.44,1.27,17.7,17.7,0,0,1,5.67,3.27q-1.24-.53-2.78-1t-3.25-.93a33,33,0,0,0-3.49-.67,26,26,0,0,0-3.51-.24,33.55,33.55,0,0,0-7.93.78A16.86,16.86,0,0,0,78.36,926.35Zm35.42,6.31h10.47V915.82h1.85v18.53H113.77Z" transform="translate(-61 -912)"/><path class="cls-1" d="M138.1,942.17a29,29,0,0,1,2.36-11.57,27.91,27.91,0,0,1,6.87-9.62,33,33,0,0,1,11.11-6.55A43.63,43.63,0,0,1,173.52,912a48.07,48.07,0,0,1,15.35,2.2,29.79,29.79,0,0,1,10.78,6.11,24.42,24.42,0,0,1,6.34,9.24,31.69,31.69,0,0,1,2.08,11.6,28,28,0,0,1-2.32,11.37,26.46,26.46,0,0,1-6.73,9.22,32.11,32.11,0,0,1-10.89,6.2,44.42,44.42,0,0,1-14.73,2.27,50.08,50.08,0,0,1-13.49-1.78,34.77,34.77,0,0,1-11.24-5.31,26.17,26.17,0,0,1-7.71-8.77A25.1,25.1,0,0,1,138.1,942.17Zm9.76,23.68a31.8,31.8,0,0,0,5.1,3,44.14,44.14,0,0,0,6.14,2.35,49.68,49.68,0,0,0,6.91,1.56,51.24,51.24,0,0,0,22.52-1.69,35.54,35.54,0,0,0,12-6.44,29.88,29.88,0,0,0,7.88-10.13,30.45,30.45,0,0,0,2.85-13.35,27.51,27.51,0,0,0-1-7.31,31.7,31.7,0,0,0-13-18,26.6,26.6,0,0,1,6.69,4.38,27.07,27.07,0,0,1,8.06,13,29.45,29.45,0,0,1,1.06,7.91,33.77,33.77,0,0,1-2.8,14,29.92,29.92,0,0,1-8,10.69,36.63,36.63,0,0,1-12.5,6.82,52.13,52.13,0,0,1-16.32,2.4,44.93,44.93,0,0,1-14.79-2.24A25.78,25.78,0,0,1,147.86,965.85Zm1.28-24a21.43,21.43,0,0,0,1.81,9,19.13,19.13,0,0,0,5,6.69,22,22,0,0,0,7.55,4.15,30.32,30.32,0,0,0,9.47,1.42,27.65,27.65,0,0,0,10.36-1.8,22.37,22.37,0,0,0,7.53-4.82,19.92,19.92,0,0,0,4.59-7,22.79,22.79,0,0,0,1.55-8.33,24.05,24.05,0,0,0-1.66-9.11,19.27,19.27,0,0,0-4.73-7,21.08,21.08,0,0,0-7.46-4.42,29.45,29.45,0,0,0-9.87-1.56,28.18,28.18,0,0,0-9.74,1.62,22.33,22.33,0,0,0-7.64,4.6,20.78,20.78,0,0,0-5,7.18A23.52,23.52,0,0,0,149.14,941.81Zm3.18.13a21.13,21.13,0,0,1,1.39-7.69A17.67,17.67,0,0,1,157.8,928a19.54,19.54,0,0,1,6.58-4.22,23.87,23.87,0,0,1,8.92-1.56,22.42,22.42,0,0,1,9.76,2,19.58,19.58,0,0,1,7.15,5.8,25.84,25.84,0,0,0-8.28-4.78,27.51,27.51,0,0,0-8.63-1.36,21.86,21.86,0,0,0-8.13,1.42,17.47,17.47,0,0,0-6,3.89,16.9,16.9,0,0,0-3.75,5.75,18.76,18.76,0,0,0-1.3,7,15.76,15.76,0,0,0,1,5.62,17.66,17.66,0,0,0,2.91,5,21.41,21.41,0,0,0,4.59,4.13,27.91,27.91,0,0,0,6.09,3.07,22.34,22.34,0,0,1-7-2.24,17.93,17.93,0,0,1-5.14-4,16.57,16.57,0,0,1-3.16-5.31A18.13,18.13,0,0,1,152.32,941.94Z" transform="translate(-61 -912)"/></svg>