<svg id="Слой_1" data-name="Слой 1" xmlns="http://www.w3.org/2000/svg" width="280" height="102" viewBox="0 0 280 102"><defs><style>.cls-1{fill:#1a1a1a;}</style></defs><title>wow-frame-mobile</title><path class="cls-1" d="M2615,864a46,46,0,1,1-46,46,46,46,0,0,1,46-46m0-5a51,51,0,1,0,51,51,51.06,51.06,0,0,0-51-51Z" transform="translate(-2475 -859)"/><path class="cls-1" d="M2481.28,897.74H2475v-4.26h20.32v4.26h-7.46l9.33,23.07,11-23.07h-6.5v-4.26H2521v4.26h-6.71l10.19,22.94,9.22-22.94h-6.82v-4.26H2545v4.26h-5.75l-11.87,28.87h-6.23L2510.78,904l-11.12,22.62h-6.23Zm-4.55,1.86h3.66l.43,1h-4.09Zm13.9,0h6.6v-4.76h1.07v5.77h-6.07l5.94,14.69-.64,1.36Zm10.27,28.87L2511,908.11l.61,1.28-9.92,20.09H2496l-.56-1Zm2.25-28.87h2.51l-.45,1h-2.06Zm19.76,0,.24-4.76h.83v5.77h-5l6.18,14.16-.64,1.36-7.17-16.52Zm5.67,28.87,12-28.87h6.34v-4.76H2548v5.77h-6.63l-12,28.87h-5.7l-.56-1Zm0-28.87h3l-.4,1h-2.59Z" transform="translate(-2475 -859)"/><path class="cls-1" d="M2688.28,897.74H2682v-4.26h20.32v4.26h-7.46l9.33,23.07,11-23.07h-6.5v-4.26H2728v4.26h-6.71l10.19,22.94,9.22-22.94h-6.82v-4.26H2752v4.26h-5.75l-11.87,28.87h-6.23L2717.78,904l-11.12,22.62h-6.23Zm-4.55,1.86h3.66l.43,1h-4.09Zm13.9,0h6.6v-4.76h1.07v5.77h-6.07l5.94,14.69-.64,1.36Zm10.27,28.87L2718,908.11l.61,1.28-9.92,20.09H2703l-.56-1Zm2.25-28.87h2.51l-.45,1h-2.06Zm19.76,0,.24-4.76h.83v5.77h-5l6.18,14.16-.64,1.36-7.17-16.52Zm5.67,28.87,12-28.87h6.34v-4.76H2755v5.77h-6.63l-12,28.87h-5.7l-.56-1Zm0-28.87h3l-.4,1h-2.59Z" transform="translate(-2475 -859)"/></svg>