<svg id="Слой_1" data-name="Слой 1" xmlns="http://www.w3.org/2000/svg" width="460" height="164" viewBox="0 0 460 164"><defs><style>.cls-1{fill:#1a1a1a;}</style></defs><title>wow-frame-desktop</title><path class="cls-1" d="M2363,821a75,75,0,1,1-75,75,75,75,0,0,1,75-75m0-7a82,82,0,1,0,82,82,82.09,82.09,0,0,0-82-82Z" transform="translate(-2133 -814)"/><path class="cls-1" d="M2143.33,875.38H2133v-7.1h33.41v7.1h-12.26l15.34,38.45,18.07-38.45h-10.68v-7.1h31.74v7.1h-11l16.75,38.23,15.16-38.23h-11.21v-7.1h29.8v7.1h-9.45l-19.52,48.12h-10.24l-17.05-37.69-18.29,37.69h-10.24Zm-7.47,3.1h6l.7,1.69h-6.73Zm22.86,0h10.86v-7.94h1.76v9.62h-10l9.76,24.48-1.05,2.26Zm16.88,48.12,16.57-33.92,1,2.13-16.31,33.48h-9.36l-.92-1.69Zm3.69-48.12h4.13l-.75,1.69h-3.38Zm32.48,0,.4-7.94h1.36v9.62h-8.18l10.15,23.59-1.05,2.26-11.78-27.54Zm9.32,48.12,19.74-48.12h10.42v-7.94H2253v9.62h-10.9l-19.65,48.12h-9.36l-.92-1.69Zm0-48.12h4.92l-.66,1.69h-4.26Z" transform="translate(-2133 -814)"/><path class="cls-1" d="M2483.33,875.38H2473v-7.1h33.41v7.1h-12.26l15.34,38.45,18.07-38.45h-10.68v-7.1h31.74v7.1h-11l16.75,38.23,15.16-38.23h-11.21v-7.1h29.8v7.1h-9.45l-19.52,48.12h-10.24l-17.05-37.69-18.29,37.69h-10.24Zm-7.47,3.1h6l.7,1.69h-6.73Zm22.86,0h10.86v-7.94h1.76v9.62h-10l9.76,24.48-1.05,2.26Zm16.88,48.12,16.57-33.92,1,2.13-16.31,33.48h-9.36l-.92-1.69Zm3.69-48.12h4.13l-.75,1.69h-3.38Zm32.48,0,.4-7.94h1.36v9.62h-8.18l10.15,23.59-1.05,2.26-11.78-27.54Zm9.32,48.12,19.74-48.12h10.42v-7.94H2593v9.62h-10.9l-19.65,48.12h-9.36l-.92-1.69Zm0-48.12h4.92l-.66,1.69h-4.26Z" transform="translate(-2133 -814)"/></svg>